# xmcd CD database file
#
# Track frame offsets:
#	150
#	30039
#	49151
#	66827
#	76880
#	99533
#	121666
#	135242
#	156493
#	177578
#	192948
#	200150
#	216012
#
# Disc length: 3103 seconds
#
# Revision: 0
# Processed by: cddbd v1.4PL0 Copyright (c) Steve Scherf et al.
# Submitted via: CDex 1.51
#
DISCID=ae0c1d0d
DTITLE=Llewellyn and Juliana - Lorna
DYEAR=2000
DGENRE=New Age
TTITLE0=Afraid
TTITLE1=These are the Times
TTITLE2=He must have Known
TTITLE3=Stand up
TTITLE4=Make me Angry
TTITLE5=Our Secret Place
TTITLE6=Shame the Name
TTITLE7=Ler Her go
TTITLE8=I Will
TTITLE9=Move 1 Inch
TTITLE10=Watch My Footsteps
TTITLE11=How Will I Love
TTITLE12=Prase John Rudd
EXTD=YEAR: 2000
EXTT0=
EXTT1=
EXTT2=
EXTT3=
EXTT4=
EXTT5=
EXTT6=
EXTT7=
EXTT8=
EXTT9=
EXTT10=
EXTT11=
EXTT12=
PLAYORDER=
